
<svg xmlns="http://www.w3.org/2000/svg" xmlns:xlink="http://www.w3.org/1999/xlink" width="256px" height="256px" viewBox="0 0 256 256" version="1.1">
<defs>
<linearGradient id="linear0" gradientUnits="userSpaceOnUse" x1="216.405899" y1="78.611198" x2="526.997375" y2="670.593323" gradientTransform="matrix(0.347354,0,0,0.347354,0,0)">
<stop offset="0" style="stop-color:rgb(25.490198%,74.509805%,83.529413%);stop-opacity:1;"/>
<stop offset="0.9954" style="stop-color:rgb(51.372552%,32.549021%,84.313726%);stop-opacity:1;"/>
</linearGradient>
</defs>
<g id="surface1">
<path style=" stroke:none;fill-rule:nonzero;fill:url(#linear0);" d="M 244.863281 101.183594 L 154.816406 11.136719 C 140.046875 -3.683594 115.953125 -3.683594 101.183594 11.136719 L 11.136719 101.183594 C -3.683594 115.953125 -3.683594 140.046875 11.136719 154.816406 L 101.183594 244.863281 C 115.953125 259.683594 140.046875 259.683594 154.816406 244.863281 L 244.863281 154.816406 C 259.726562 140.046875 259.726562 115.953125 244.863281 101.183594 Z M 244.863281 101.183594 "/>
<path style=" stroke:none;fill-rule:nonzero;fill:rgb(93.725491%,93.725491%,93.725491%);fill-opacity:1;" d="M 46.5 116.546875 C 40.773438 123.816406 41.273438 134.410156 47.953125 141.046875 C 55.183594 148.273438 66.863281 148.273438 74.046875 141.046875 L 102.726562 112.410156 C 85.363281 101.453125 62.453125 102.816406 46.5 116.546875 Z M 46.5 116.546875 "/>
<path style=" stroke:none;fill-rule:nonzero;fill:rgb(93.725491%,93.725491%,93.725491%);fill-opacity:1;" d="M 208.046875 114.953125 C 200.816406 107.726562 189.136719 107.726562 181.953125 114.953125 L 152.773438 144.136719 C 170.273438 155.226562 193.453125 153.726562 209.410156 139.636719 C 215.226562 132.316406 214.773438 121.683594 208.046875 114.953125 Z M 208.046875 114.953125 "/>
<path style=" stroke:none;fill-rule:nonzero;fill:rgb(100%,100%,100%);fill-opacity:1;" d="M 149.226562 147.589844 C 146.316406 145.726562 143.589844 143.589844 141.046875 141.046875 C 122.546875 122.546875 122.546875 92.546875 141.046875 74.046875 C 148.273438 66.816406 148.273438 55.136719 141.046875 47.953125 C 133.816406 40.726562 122.136719 40.726562 114.953125 47.953125 L 47.953125 114.953125 C 63.910156 98.953125 88.453125 96.816406 106.726562 108.410156 C 109.683594 110.273438 112.410156 112.410156 114.953125 114.953125 C 133.453125 133.453125 133.453125 163.453125 114.953125 181.953125 C 107.726562 189.183594 107.726562 200.863281 114.953125 208.046875 C 122.183594 215.273438 133.863281 215.273438 141.046875 208.046875 L 208.046875 141.089844 C 192.089844 157.046875 167.546875 159.183594 149.226562 147.589844 Z M 149.226562 147.589844 "/>
</g>
</svg>
