
<svg xmlns="http://www.w3.org/2000/svg" xmlns:xlink="http://www.w3.org/1999/xlink" width="256px" height="256px" viewBox="0 0 256 256" version="1.1">
<defs>
<filter id="alpha" filterUnits="objectBoundingBox" x="0%" y="0%" width="100%" height="100%">
  <feColorMatrix type="matrix" in="SourceGraphic" values="0 0 0 0 1 0 0 0 0 1 0 0 0 0 1 0 0 0 1 0"/>
</filter>
<mask id="mask0">
  <g filter="url(#alpha)">
<rect x="0" y="0" width="256" height="256" style="fill:rgb(0%,0%,0%);fill-opacity:0.2;stroke:none;"/>
  </g>
</mask>
<clipPath id="clip1">
  <rect x="0" y="0" width="256" height="256"/>
</clipPath>
<g id="surface5" clip-path="url(#clip1)">
<path style=" stroke:none;fill-rule:nonzero;fill:rgb(0%,0%,0%);fill-opacity:1;" d="M 104 17 C 31.191406 17 16 32.519531 16 105 L 16 153 C 16 225.480469 31.191406 241 104 241 L 152 241 C 224.808594 241 240 225.480469 240 153 L 240 105 C 240 32.519531 224.808594 17 152 17 "/>
</g>
<linearGradient id="linear0" gradientUnits="userSpaceOnUse" x1="30" y1="30" x2="2" y2="2" gradientTransform="matrix(8,0,0,8,0,0)">
<stop offset="0" style="stop-color:rgb(25.490198%,73.333335%,100%);stop-opacity:1;"/>
<stop offset="1" style="stop-color:rgb(0%,56.862748%,97.647059%);stop-opacity:1;"/>
</linearGradient>
</defs>
<g id="surface1">
<use xlink:href="#surface5" mask="url(#mask0)"/>
<path style=" stroke:none;fill-rule:nonzero;fill:url(#linear0);" d="M 104 16 C 31.191406 16 16 31.519531 16 104 L 16 152 C 16 224.480469 31.191406 240 104 240 L 152 240 C 224.808594 240 240 224.480469 240 152 L 240 104 C 240 31.519531 224.808594 16 152 16 Z M 104 16 "/>
<path style=" stroke:none;fill-rule:nonzero;fill:rgb(100%,100%,100%);fill-opacity:1;" d="M 54.5 177.734375 L 51.140625 173.449219 L 51.632812 165.039062 C 52.382812 152.195312 54.171875 144.949219 60.640625 128.5625 C 67.886719 110.203125 73.238281 99.953125 80.78125 89.996094 C 91.066406 76.429688 99.875 70.921875 112.59375 70.113281 C 128.570312 69.097656 136.964844 76.046875 148.167969 99.566406 C 155.4375 114.832031 158.214844 120.289062 158.710938 120.296875 C 159.171875 120.308594 170.160156 110.417969 187.578125 94.320312 C 193.410156 88.925781 198.390625 84.773438 198.644531 85.089844 C 199.289062 85.902344 179.929688 109.453125 170.21875 119.671875 C 165.78125 124.339844 161.96875 128.535156 161.746094 128.988281 C 161.019531 130.460938 163.304688 134.714844 168.660156 141.867188 C 175.4375 150.914062 179.125 153.335938 186.125 153.335938 C 191.84375 153.335938 195.726562 151.921875 206.484375 145.933594 C 210.335938 143.789062 213.777344 142.035156 214.136719 142.035156 C 214.972656 142.035156 213.140625 145.246094 204.816406 158.355469 C 193.800781 175.710938 191.625 177.664062 179.917969 180.757812 C 172.296875 182.769531 166.824219 182.429688 162.328125 179.664062 C 157.925781 176.957031 148.453125 166.101562 141.609375 155.921875 C 139.046875 152.109375 136.535156 148.988281 136.023438 148.988281 C 135.511719 148.988281 130.828125 151.988281 125.609375 155.652344 C 99.859375 173.734375 80.617188 182.015625 64.355469 182.015625 L 57.859375 182.015625 Z M 103.25 156.632812 C 109.246094 154.824219 127.398438 146.046875 130.621094 143.394531 C 131.597656 142.59375 132.566406 141.382812 132.769531 140.710938 C 133.210938 139.269531 127.8125 126.117188 122.964844 116.828125 C 121.09375 113.246094 116.75 106.757812 113.3125 102.414062 C 108.261719 96.039062 106.285156 94.152344 103.050781 92.636719 C 98.324219 90.414062 91.878906 90.160156 88.277344 92.050781 C 82.601562 95.027344 72.777344 108.347656 68.488281 118.882812 C 66.636719 123.429688 66.269531 125.398438 66.011719 132.207031 C 65.75 139.144531 65.914062 140.71875 67.238281 144.15625 C 69.839844 150.910156 76.777344 157.191406 83.121094 158.542969 C 87.6875 159.511719 96.449219 158.679688 103.25 156.632812 Z M 103.25 156.632812 "/>
</g>
</svg>
