
<svg xmlns="http://www.w3.org/2000/svg" xmlns:xlink="http://www.w3.org/1999/xlink" width="128px" height="128px" viewBox="0 0 128 128" version="1.1">
<defs>
<linearGradient id="linear0" gradientUnits="userSpaceOnUse" x1="216.405899" y1="78.611198" x2="526.997375" y2="670.593323" gradientTransform="matrix(0.173677,0,0,0.173677,0,0)">
<stop offset="0" style="stop-color:rgb(25.490198%,74.509805%,83.529413%);stop-opacity:1;"/>
<stop offset="0.9954" style="stop-color:rgb(51.372552%,32.549021%,84.313726%);stop-opacity:1;"/>
</linearGradient>
</defs>
<g id="surface1">
<path style=" stroke:none;fill-rule:nonzero;fill:url(#linear0);" d="M 122.433594 50.589844 L 77.410156 5.566406 C 70.023438 -1.839844 57.976562 -1.839844 50.589844 5.566406 L 5.566406 50.589844 C -1.839844 57.976562 -1.839844 70.023438 5.566406 77.410156 L 50.589844 122.433594 C 57.976562 129.839844 70.023438 129.839844 77.410156 122.433594 L 122.433594 77.410156 C 129.863281 70.023438 129.863281 57.976562 122.433594 50.589844 Z M 122.433594 50.589844 "/>
<path style=" stroke:none;fill-rule:nonzero;fill:rgb(93.725491%,93.725491%,93.725491%);fill-opacity:1;" d="M 23.25 58.273438 C 20.386719 61.910156 20.636719 67.203125 23.976562 70.523438 C 27.589844 74.136719 33.433594 74.136719 37.023438 70.523438 L 51.363281 56.203125 C 42.683594 50.726562 31.226562 51.410156 23.25 58.273438 Z M 23.25 58.273438 "/>
<path style=" stroke:none;fill-rule:nonzero;fill:rgb(93.725491%,93.725491%,93.725491%);fill-opacity:1;" d="M 104.023438 57.476562 C 100.410156 53.863281 94.566406 53.863281 90.976562 57.476562 L 76.386719 72.066406 C 85.136719 77.613281 96.726562 76.863281 104.703125 69.816406 C 107.613281 66.160156 107.386719 60.839844 104.023438 57.476562 Z M 104.023438 57.476562 "/>
<path style=" stroke:none;fill-rule:nonzero;fill:rgb(100%,100%,100%);fill-opacity:1;" d="M 74.613281 73.796875 C 73.160156 72.863281 71.796875 71.796875 70.523438 70.523438 C 61.273438 61.273438 61.273438 46.273438 70.523438 37.023438 C 74.136719 33.410156 74.136719 27.566406 70.523438 23.976562 C 66.910156 20.363281 61.066406 20.363281 57.476562 23.976562 L 23.976562 57.476562 C 31.953125 49.476562 44.226562 48.410156 53.363281 54.203125 C 54.839844 55.136719 56.203125 56.203125 57.476562 57.476562 C 66.726562 66.726562 66.726562 81.726562 57.476562 90.976562 C 53.863281 94.589844 53.863281 100.433594 57.476562 104.023438 C 61.089844 107.636719 66.933594 107.636719 70.523438 104.023438 L 104.023438 70.546875 C 96.046875 78.523438 83.773438 79.589844 74.613281 73.796875 Z M 74.613281 73.796875 "/>
</g>
</svg>
