
<svg xmlns="http://www.w3.org/2000/svg" xmlns:xlink="http://www.w3.org/1999/xlink" width="24px" height="24px" viewBox="0 0 24 24" version="1.1">
<defs>
<filter id="alpha" filterUnits="objectBoundingBox" x="0%" y="0%" width="100%" height="100%">
  <feColorMatrix type="matrix" in="SourceGraphic" values="0 0 0 0 1 0 0 0 0 1 0 0 0 0 1 0 0 0 1 0"/>
</filter>
<mask id="mask0">
  <g filter="url(#alpha)">
<rect x="0" y="0" width="24" height="24" style="fill:rgb(0%,0%,0%);fill-opacity:0.2;stroke:none;"/>
  </g>
</mask>
<clipPath id="clip1">
  <rect x="0" y="0" width="24" height="24"/>
</clipPath>
<g id="surface5" clip-path="url(#clip1)">
<path style=" stroke:none;fill-rule:nonzero;fill:rgb(0%,0%,0%);fill-opacity:1;" d="M 9.75 1.59375 C 2.925781 1.59375 1.5 3.046875 1.5 9.84375 L 1.5 14.34375 C 1.5 21.140625 2.925781 22.59375 9.75 22.59375 L 14.25 22.59375 C 21.074219 22.59375 22.5 21.140625 22.5 14.34375 L 22.5 9.84375 C 22.5 3.046875 21.074219 1.59375 14.25 1.59375 "/>
</g>
<linearGradient id="linear0" gradientUnits="userSpaceOnUse" x1="30" y1="30" x2="2" y2="2" gradientTransform="matrix(0.75,0,0,0.75,0,0)">
<stop offset="0" style="stop-color:rgb(25.490198%,73.333335%,100%);stop-opacity:1;"/>
<stop offset="1" style="stop-color:rgb(0%,56.862748%,97.647059%);stop-opacity:1;"/>
</linearGradient>
</defs>
<g id="surface1">
<use xlink:href="#surface5" mask="url(#mask0)"/>
<path style=" stroke:none;fill-rule:nonzero;fill:url(#linear0);" d="M 9.75 1.5 C 2.925781 1.5 1.5 2.953125 1.5 9.75 L 1.5 14.25 C 1.5 21.046875 2.925781 22.5 9.75 22.5 L 14.25 22.5 C 21.074219 22.5 22.5 21.046875 22.5 14.25 L 22.5 9.75 C 22.5 2.953125 21.074219 1.5 14.25 1.5 Z M 9.75 1.5 "/>
<path style=" stroke:none;fill-rule:nonzero;fill:rgb(100%,100%,100%);fill-opacity:1;" d="M 5.109375 16.664062 L 4.792969 16.261719 L 4.839844 15.472656 C 4.910156 14.269531 5.078125 13.589844 5.683594 12.054688 C 6.363281 10.332031 6.867188 9.371094 7.574219 8.4375 C 8.539062 7.164062 9.363281 6.648438 10.554688 6.574219 C 12.054688 6.476562 12.839844 7.128906 13.890625 9.335938 C 14.574219 10.765625 14.832031 11.277344 14.878906 11.277344 C 14.921875 11.277344 15.953125 10.351562 17.585938 8.84375 C 18.132812 8.335938 18.597656 7.949219 18.621094 7.976562 C 18.683594 8.054688 16.867188 10.261719 15.957031 11.21875 C 15.542969 11.65625 15.183594 12.050781 15.164062 12.09375 C 15.09375 12.230469 15.308594 12.628906 15.8125 13.300781 C 16.449219 14.148438 16.792969 14.375 17.449219 14.375 C 17.984375 14.375 18.347656 14.242188 19.359375 13.679688 C 19.71875 13.480469 20.042969 13.316406 20.074219 13.316406 C 20.152344 13.316406 19.980469 13.617188 19.203125 14.847656 C 18.167969 16.472656 17.964844 16.65625 16.867188 16.945312 C 16.152344 17.132812 15.640625 17.101562 15.21875 16.84375 C 14.804688 16.589844 13.917969 15.570312 13.277344 14.617188 C 13.035156 14.261719 12.800781 13.96875 12.753906 13.96875 C 12.703125 13.96875 12.265625 14.25 11.777344 14.59375 C 9.363281 16.289062 7.558594 17.0625 6.03125 17.0625 L 5.425781 17.0625 Z M 9.679688 14.683594 C 10.242188 14.515625 11.945312 13.691406 12.246094 13.441406 C 12.335938 13.367188 12.429688 13.253906 12.449219 13.191406 C 12.488281 13.054688 11.980469 11.824219 11.527344 10.953125 C 11.351562 10.617188 10.945312 10.007812 10.621094 9.601562 C 10.148438 9.003906 9.964844 8.828125 9.660156 8.683594 C 9.21875 8.476562 8.613281 8.453125 8.277344 8.628906 C 7.742188 8.910156 6.824219 10.15625 6.421875 11.144531 C 6.246094 11.570312 6.210938 11.757812 6.1875 12.394531 C 6.164062 13.046875 6.179688 13.191406 6.304688 13.515625 C 6.546875 14.148438 7.199219 14.738281 7.792969 14.863281 C 8.21875 14.953125 9.042969 14.875 9.679688 14.683594 Z M 9.679688 14.683594 "/>
</g>
</svg>
