
<svg xmlns="http://www.w3.org/2000/svg" xmlns:xlink="http://www.w3.org/1999/xlink" width="48px" height="48px" viewBox="0 0 48 48" version="1.1">
<defs>
<filter id="alpha" filterUnits="objectBoundingBox" x="0%" y="0%" width="100%" height="100%">
  <feColorMatrix type="matrix" in="SourceGraphic" values="0 0 0 0 1 0 0 0 0 1 0 0 0 0 1 0 0 0 1 0"/>
</filter>
<mask id="mask0">
  <g filter="url(#alpha)">
<rect x="0" y="0" width="48" height="48" style="fill:rgb(0%,0%,0%);fill-opacity:0.2;stroke:none;"/>
  </g>
</mask>
<clipPath id="clip1">
  <rect x="0" y="0" width="48" height="48"/>
</clipPath>
<g id="surface5" clip-path="url(#clip1)">
<path style=" stroke:none;fill-rule:nonzero;fill:rgb(0%,0%,0%);fill-opacity:1;" d="M 19.5 3.1875 C 5.847656 3.1875 3 6.097656 3 19.6875 L 3 28.6875 C 3 42.277344 5.847656 45.1875 19.5 45.1875 L 28.5 45.1875 C 42.152344 45.1875 45 42.277344 45 28.6875 L 45 19.6875 C 45 6.097656 42.152344 3.1875 28.5 3.1875 "/>
</g>
<linearGradient id="linear0" gradientUnits="userSpaceOnUse" x1="30" y1="30" x2="2" y2="2" gradientTransform="matrix(1.5,0,0,1.5,0,0)">
<stop offset="0" style="stop-color:rgb(25.490198%,73.333335%,100%);stop-opacity:1;"/>
<stop offset="1" style="stop-color:rgb(0%,56.862748%,97.647059%);stop-opacity:1;"/>
</linearGradient>
</defs>
<g id="surface1">
<use xlink:href="#surface5" mask="url(#mask0)"/>
<path style=" stroke:none;fill-rule:nonzero;fill:url(#linear0);" d="M 19.5 3 C 5.847656 3 3 5.910156 3 19.5 L 3 28.5 C 3 42.089844 5.847656 45 19.5 45 L 28.5 45 C 42.152344 45 45 42.089844 45 28.5 L 45 19.5 C 45 5.910156 42.152344 3 28.5 3 Z M 19.5 3 "/>
<path style=" stroke:none;fill-rule:nonzero;fill:rgb(100%,100%,100%);fill-opacity:1;" d="M 10.21875 33.324219 L 9.589844 32.523438 L 9.679688 30.945312 C 9.820312 28.535156 10.15625 27.179688 11.371094 24.105469 C 12.726562 20.664062 13.730469 18.742188 15.148438 16.875 C 17.074219 14.332031 18.726562 13.296875 21.109375 13.148438 C 24.105469 12.957031 25.679688 14.257812 27.78125 18.667969 C 29.144531 21.53125 29.664062 22.554688 29.757812 22.554688 C 29.84375 22.558594 31.90625 20.703125 35.171875 17.683594 C 36.265625 16.671875 37.199219 15.894531 37.246094 15.953125 C 37.367188 16.105469 33.738281 20.523438 31.917969 22.4375 C 31.085938 23.3125 30.367188 24.101562 30.328125 24.183594 C 30.191406 24.460938 30.621094 25.257812 31.625 26.601562 C 32.894531 28.296875 33.585938 28.75 34.898438 28.75 C 35.96875 28.75 36.699219 28.484375 38.714844 27.363281 C 39.4375 26.960938 40.082031 26.632812 40.152344 26.632812 C 40.308594 26.632812 39.964844 27.234375 38.402344 29.691406 C 36.335938 32.945312 35.929688 33.3125 33.734375 33.890625 C 32.304688 34.269531 31.28125 34.207031 30.4375 33.6875 C 29.609375 33.179688 27.835938 31.144531 26.550781 29.234375 C 26.070312 28.519531 25.601562 27.933594 25.503906 27.933594 C 25.410156 27.933594 24.53125 28.496094 23.550781 29.183594 C 18.722656 32.574219 15.117188 34.128906 12.066406 34.128906 L 10.847656 34.128906 Z M 19.359375 29.367188 C 20.484375 29.03125 23.886719 27.382812 24.492188 26.886719 C 24.675781 26.734375 24.855469 26.507812 24.894531 26.382812 C 24.976562 26.113281 23.964844 23.648438 23.054688 21.90625 C 22.707031 21.234375 21.890625 20.015625 21.246094 19.203125 C 20.300781 18.007812 19.929688 17.652344 19.320312 17.367188 C 18.433594 16.953125 17.226562 16.90625 16.550781 17.257812 C 15.488281 17.816406 13.644531 20.316406 12.839844 22.289062 C 12.492188 23.144531 12.425781 23.511719 12.378906 24.789062 C 12.328125 26.089844 12.359375 26.386719 12.605469 27.03125 C 13.09375 28.296875 14.394531 29.472656 15.585938 29.726562 C 16.441406 29.910156 18.085938 29.753906 19.359375 29.367188 Z M 19.359375 29.367188 "/>
</g>
</svg>
