
<svg xmlns="http://www.w3.org/2000/svg" xmlns:xlink="http://www.w3.org/1999/xlink" width="64px" height="64px" viewBox="0 0 64 64" version="1.1">
<defs>
<linearGradient id="linear0" gradientUnits="userSpaceOnUse" x1="216.405899" y1="78.611198" x2="526.997375" y2="670.593323" gradientTransform="matrix(0.0868384,0,0,0.0868384,0,0)">
<stop offset="0" style="stop-color:rgb(25.490198%,74.509805%,83.529413%);stop-opacity:1;"/>
<stop offset="0.9954" style="stop-color:rgb(51.372552%,32.549021%,84.313726%);stop-opacity:1;"/>
</linearGradient>
</defs>
<g id="surface1">
<path style=" stroke:none;fill-rule:nonzero;fill:url(#linear0);" d="M 61.214844 25.296875 L 38.703125 2.785156 C 35.011719 -0.921875 28.988281 -0.921875 25.296875 2.785156 L 2.785156 25.296875 C -0.921875 28.988281 -0.921875 35.011719 2.785156 38.703125 L 25.296875 61.214844 C 28.988281 64.921875 35.011719 64.921875 38.703125 61.214844 L 61.214844 38.703125 C 64.933594 35.011719 64.933594 28.988281 61.214844 25.296875 Z M 61.214844 25.296875 "/>
<path style=" stroke:none;fill-rule:nonzero;fill:rgb(93.725491%,93.725491%,93.725491%);fill-opacity:1;" d="M 11.625 29.136719 C 10.191406 30.953125 10.316406 33.601562 11.988281 35.261719 C 13.796875 37.066406 16.714844 37.066406 18.511719 35.261719 L 25.683594 28.101562 C 21.339844 25.363281 15.613281 25.703125 11.625 29.136719 Z M 11.625 29.136719 "/>
<path style=" stroke:none;fill-rule:nonzero;fill:rgb(93.725491%,93.725491%,93.725491%);fill-opacity:1;" d="M 52.011719 28.738281 C 50.203125 26.933594 47.285156 26.933594 45.488281 28.738281 L 38.191406 36.035156 C 42.566406 38.808594 48.363281 38.433594 52.351562 34.910156 C 53.808594 33.078125 53.691406 30.421875 52.011719 28.738281 Z M 52.011719 28.738281 "/>
<path style=" stroke:none;fill-rule:nonzero;fill:rgb(100%,100%,100%);fill-opacity:1;" d="M 37.308594 36.898438 C 36.578125 36.433594 35.898438 35.898438 35.261719 35.261719 C 30.636719 30.636719 30.636719 23.136719 35.261719 18.511719 C 37.066406 16.703125 37.066406 13.785156 35.261719 11.988281 C 33.453125 10.183594 30.535156 10.183594 28.738281 11.988281 L 11.988281 28.738281 C 15.976562 24.738281 22.113281 24.203125 26.683594 27.101562 C 27.421875 27.566406 28.101562 28.101562 28.738281 28.738281 C 33.363281 33.363281 33.363281 40.863281 28.738281 45.488281 C 26.933594 47.296875 26.933594 50.214844 28.738281 52.011719 C 30.546875 53.816406 33.464844 53.816406 35.261719 52.011719 L 52.011719 35.273438 C 48.023438 39.261719 41.886719 39.796875 37.308594 36.898438 Z M 37.308594 36.898438 "/>
</g>
</svg>
