
<svg xmlns="http://www.w3.org/2000/svg" xmlns:xlink="http://www.w3.org/1999/xlink" width="96px" height="96px" viewBox="0 0 96 96" version="1.1">
<defs>
<filter id="alpha" filterUnits="objectBoundingBox" x="0%" y="0%" width="100%" height="100%">
  <feColorMatrix type="matrix" in="SourceGraphic" values="0 0 0 0 1 0 0 0 0 1 0 0 0 0 1 0 0 0 1 0"/>
</filter>
<mask id="mask0">
  <g filter="url(#alpha)">
<rect x="0" y="0" width="96" height="96" style="fill:rgb(0%,0%,0%);fill-opacity:0.2;stroke:none;"/>
  </g>
</mask>
<clipPath id="clip1">
  <rect x="0" y="0" width="96" height="96"/>
</clipPath>
<g id="surface5" clip-path="url(#clip1)">
<path style=" stroke:none;fill-rule:nonzero;fill:rgb(0%,0%,0%);fill-opacity:1;" d="M 39 6.375 C 11.695312 6.375 6 12.195312 6 39.375 L 6 57.375 C 6 84.554688 11.695312 90.375 39 90.375 L 57 90.375 C 84.304688 90.375 90 84.554688 90 57.375 L 90 39.375 C 90 12.195312 84.304688 6.375 57 6.375 "/>
</g>
<linearGradient id="linear0" gradientUnits="userSpaceOnUse" x1="30" y1="30" x2="2" y2="2" gradientTransform="matrix(3,0,0,3,0,0)">
<stop offset="0" style="stop-color:rgb(25.490198%,73.333335%,100%);stop-opacity:1;"/>
<stop offset="1" style="stop-color:rgb(0%,56.862748%,97.647059%);stop-opacity:1;"/>
</linearGradient>
</defs>
<g id="surface1">
<use xlink:href="#surface5" mask="url(#mask0)"/>
<path style=" stroke:none;fill-rule:nonzero;fill:url(#linear0);" d="M 39 6 C 11.695312 6 6 11.820312 6 39 L 6 57 C 6 84.179688 11.695312 90 39 90 L 57 90 C 84.304688 90 90 84.179688 90 57 L 90 39 C 90 11.820312 84.304688 6 57 6 Z M 39 6 "/>
<path style=" stroke:none;fill-rule:nonzero;fill:rgb(100%,100%,100%);fill-opacity:1;" d="M 20.4375 66.648438 L 19.175781 65.042969 L 19.363281 61.890625 C 19.644531 57.074219 20.316406 54.355469 22.738281 48.210938 C 25.457031 41.324219 27.464844 37.480469 30.292969 33.75 C 34.148438 28.660156 37.453125 26.597656 42.222656 26.292969 C 48.214844 25.914062 51.363281 28.519531 55.5625 37.339844 C 58.289062 43.0625 59.332031 45.109375 59.515625 45.113281 C 59.691406 45.113281 63.808594 41.40625 70.339844 35.371094 C 72.527344 33.347656 74.398438 31.789062 74.492188 31.910156 C 74.734375 32.210938 67.472656 41.042969 63.832031 44.875 C 62.167969 46.628906 60.738281 48.199219 60.652344 48.371094 C 60.382812 48.921875 61.238281 50.519531 63.246094 53.199219 C 65.789062 56.59375 67.171875 57.5 69.796875 57.5 C 71.941406 57.5 73.398438 56.972656 77.433594 54.726562 C 78.875 53.921875 80.167969 53.261719 80.300781 53.261719 C 80.613281 53.261719 79.925781 54.46875 76.804688 59.382812 C 72.675781 65.890625 71.859375 66.625 67.46875 67.785156 C 64.609375 68.539062 62.558594 68.410156 60.871094 67.375 C 59.222656 66.359375 55.667969 62.289062 53.105469 58.472656 C 52.144531 57.039062 51.199219 55.871094 51.007812 55.871094 C 50.816406 55.871094 49.058594 56.996094 47.105469 58.367188 C 37.445312 65.152344 30.230469 68.257812 24.132812 68.257812 L 21.699219 68.257812 Z M 38.71875 58.738281 C 40.96875 58.058594 47.773438 54.765625 48.984375 53.773438 C 49.347656 53.472656 49.710938 53.019531 49.789062 52.765625 C 49.953125 52.226562 47.929688 47.292969 46.113281 43.8125 C 45.410156 42.464844 43.78125 40.035156 42.492188 38.40625 C 40.597656 36.015625 39.855469 35.308594 38.644531 34.738281 C 36.871094 33.90625 34.453125 33.808594 33.105469 34.519531 C 30.976562 35.636719 27.292969 40.628906 25.683594 44.582031 C 24.988281 46.285156 24.851562 47.023438 24.753906 49.578125 C 24.65625 52.179688 24.71875 52.769531 25.214844 54.058594 C 26.191406 56.589844 28.792969 58.945312 31.171875 59.453125 C 32.882812 59.816406 36.167969 59.503906 38.71875 58.738281 Z M 38.71875 58.738281 "/>
</g>
</svg>
