
<svg xmlns="http://www.w3.org/2000/svg" xmlns:xlink="http://www.w3.org/1999/xlink" width="24px" height="24px" viewBox="0 0 24 24" version="1.1">
<defs>
<linearGradient id="linear0" gradientUnits="userSpaceOnUse" x1="216.405899" y1="78.611198" x2="526.997375" y2="670.593323" gradientTransform="matrix(0.0325644,0,0,0.0325644,0,0)">
<stop offset="0" style="stop-color:rgb(25.490198%,74.509805%,83.529413%);stop-opacity:1;"/>
<stop offset="0.9954" style="stop-color:rgb(51.372552%,32.549021%,84.313726%);stop-opacity:1;"/>
</linearGradient>
</defs>
<g id="surface1">
<path style=" stroke:none;fill-rule:nonzero;fill:url(#linear0);" d="M 22.957031 9.484375 L 14.515625 1.042969 C 13.128906 -0.34375 10.871094 -0.34375 9.484375 1.042969 L 1.042969 9.484375 C -0.34375 10.871094 -0.34375 13.128906 1.042969 14.515625 L 9.484375 22.957031 C 10.871094 24.34375 13.128906 24.34375 14.515625 22.957031 L 22.957031 14.515625 C 24.347656 13.128906 24.347656 10.871094 22.957031 9.484375 Z M 22.957031 9.484375 "/>
<path style=" stroke:none;fill-rule:nonzero;fill:rgb(93.725491%,93.725491%,93.725491%);fill-opacity:1;" d="M 4.359375 10.925781 C 3.824219 11.609375 3.871094 12.601562 4.496094 13.222656 C 5.171875 13.902344 6.269531 13.902344 6.941406 13.222656 L 9.628906 10.539062 C 8.003906 9.511719 5.855469 9.640625 4.359375 10.925781 Z M 4.359375 10.925781 "/>
<path style=" stroke:none;fill-rule:nonzero;fill:rgb(93.725491%,93.725491%,93.725491%);fill-opacity:1;" d="M 19.503906 10.777344 C 18.828125 10.097656 17.730469 10.097656 17.058594 10.777344 L 14.324219 13.511719 C 15.964844 14.550781 18.136719 14.410156 19.632812 13.089844 C 20.175781 12.40625 20.136719 11.40625 19.503906 10.777344 Z M 19.503906 10.777344 "/>
<path style=" stroke:none;fill-rule:nonzero;fill:rgb(100%,100%,100%);fill-opacity:1;" d="M 13.988281 13.835938 C 13.71875 13.660156 13.460938 13.460938 13.222656 13.222656 C 11.488281 11.488281 11.488281 8.675781 13.222656 6.941406 C 13.902344 6.265625 13.902344 5.167969 13.222656 4.496094 C 12.546875 3.816406 11.449219 3.816406 10.777344 4.496094 L 4.496094 10.777344 C 5.992188 9.277344 8.292969 9.078125 10.003906 10.164062 C 10.28125 10.339844 10.539062 10.539062 10.777344 10.777344 C 12.511719 12.511719 12.511719 15.324219 10.777344 17.058594 C 10.097656 17.734375 10.097656 18.832031 10.777344 19.503906 C 11.453125 20.183594 12.550781 20.183594 13.222656 19.503906 L 19.503906 13.226562 C 18.007812 14.722656 15.707031 14.921875 13.988281 13.835938 Z M 13.988281 13.835938 "/>
</g>
</svg>
