
<svg xmlns="http://www.w3.org/2000/svg" xmlns:xlink="http://www.w3.org/1999/xlink" width="48px" height="48px" viewBox="0 0 48 48" version="1.1">
<defs>
<linearGradient id="linear0" gradientUnits="userSpaceOnUse" x1="216.405899" y1="78.611198" x2="526.997375" y2="670.593323" gradientTransform="matrix(0.0651288,0,0,0.0651288,0,0)">
<stop offset="0" style="stop-color:rgb(25.490198%,74.509805%,83.529413%);stop-opacity:1;"/>
<stop offset="0.9954" style="stop-color:rgb(51.372552%,32.549021%,84.313726%);stop-opacity:1;"/>
</linearGradient>
</defs>
<g id="surface1">
<path style=" stroke:none;fill-rule:nonzero;fill:url(#linear0);" d="M 45.910156 18.972656 L 29.027344 2.089844 C 26.257812 -0.691406 21.742188 -0.691406 18.972656 2.089844 L 2.089844 18.972656 C -0.691406 21.742188 -0.691406 26.257812 2.089844 29.027344 L 18.972656 45.910156 C 21.742188 48.691406 26.257812 48.691406 29.027344 45.910156 L 45.910156 29.027344 C 48.699219 26.257812 48.699219 21.742188 45.910156 18.972656 Z M 45.910156 18.972656 "/>
<path style=" stroke:none;fill-rule:nonzero;fill:rgb(93.725491%,93.725491%,93.725491%);fill-opacity:1;" d="M 8.71875 21.851562 C 7.644531 23.214844 7.738281 25.203125 8.992188 26.445312 C 10.347656 27.800781 12.535156 27.800781 13.882812 26.445312 L 19.261719 21.078125 C 16.003906 19.023438 11.710938 19.277344 8.71875 21.851562 Z M 8.71875 21.851562 "/>
<path style=" stroke:none;fill-rule:nonzero;fill:rgb(93.725491%,93.725491%,93.725491%);fill-opacity:1;" d="M 39.007812 21.554688 C 37.652344 20.199219 35.464844 20.199219 34.117188 21.554688 L 28.644531 27.027344 C 31.925781 29.105469 36.273438 28.824219 39.265625 26.183594 C 40.355469 24.808594 40.269531 22.816406 39.007812 21.554688 Z M 39.007812 21.554688 "/>
<path style=" stroke:none;fill-rule:nonzero;fill:rgb(100%,100%,100%);fill-opacity:1;" d="M 27.980469 27.671875 C 27.433594 27.324219 26.921875 26.921875 26.445312 26.445312 C 22.976562 22.976562 22.976562 17.351562 26.445312 13.882812 C 27.800781 12.527344 27.800781 10.339844 26.445312 8.992188 C 25.089844 7.636719 22.902344 7.636719 21.554688 8.992188 L 8.992188 21.554688 C 11.984375 18.554688 16.585938 18.152344 20.011719 20.328125 C 20.566406 20.675781 21.078125 21.078125 21.554688 21.554688 C 25.023438 25.023438 25.023438 30.648438 21.554688 34.117188 C 20.199219 35.472656 20.199219 37.660156 21.554688 39.007812 C 22.910156 40.363281 25.097656 40.363281 26.445312 39.007812 L 39.007812 26.453125 C 36.015625 29.445312 31.414062 29.847656 27.980469 27.671875 Z M 27.980469 27.671875 "/>
</g>
</svg>
