
<svg xmlns="http://www.w3.org/2000/svg" xmlns:xlink="http://www.w3.org/1999/xlink" width="128px" height="128px" viewBox="0 0 128 128" version="1.1">
<defs>
<filter id="alpha" filterUnits="objectBoundingBox" x="0%" y="0%" width="100%" height="100%">
  <feColorMatrix type="matrix" in="SourceGraphic" values="0 0 0 0 1 0 0 0 0 1 0 0 0 0 1 0 0 0 1 0"/>
</filter>
<mask id="mask0">
  <g filter="url(#alpha)">
<rect x="0" y="0" width="128" height="128" style="fill:rgb(0%,0%,0%);fill-opacity:0.2;stroke:none;"/>
  </g>
</mask>
<clipPath id="clip1">
  <rect x="0" y="0" width="128" height="128"/>
</clipPath>
<g id="surface5" clip-path="url(#clip1)">
<path style=" stroke:none;fill-rule:nonzero;fill:rgb(0%,0%,0%);fill-opacity:1;" d="M 52 8.5 C 15.59375 8.5 8 16.257812 8 52.5 L 8 76.5 C 8 112.742188 15.59375 120.5 52 120.5 L 76 120.5 C 112.40625 120.5 120 112.742188 120 76.5 L 120 52.5 C 120 16.257812 112.40625 8.5 76 8.5 "/>
</g>
<linearGradient id="linear0" gradientUnits="userSpaceOnUse" x1="30" y1="30" x2="2" y2="2" gradientTransform="matrix(4,0,0,4,0,0)">
<stop offset="0" style="stop-color:rgb(25.490198%,73.333335%,100%);stop-opacity:1;"/>
<stop offset="1" style="stop-color:rgb(0%,56.862748%,97.647059%);stop-opacity:1;"/>
</linearGradient>
</defs>
<g id="surface1">
<use xlink:href="#surface5" mask="url(#mask0)"/>
<path style=" stroke:none;fill-rule:nonzero;fill:url(#linear0);" d="M 52 8 C 15.59375 8 8 15.757812 8 52 L 8 76 C 8 112.242188 15.59375 120 52 120 L 76 120 C 112.40625 120 120 112.242188 120 76 L 120 52 C 120 15.757812 112.40625 8 76 8 Z M 52 8 "/>
<path style=" stroke:none;fill-rule:nonzero;fill:rgb(100%,100%,100%);fill-opacity:1;" d="M 27.25 88.867188 L 25.570312 86.726562 L 25.816406 82.519531 C 26.191406 76.097656 27.085938 72.472656 30.320312 64.28125 C 33.941406 55.101562 36.621094 49.976562 40.390625 45 C 45.53125 38.214844 49.9375 35.460938 56.296875 35.058594 C 64.285156 34.550781 68.480469 38.023438 74.085938 49.785156 C 77.71875 57.414062 79.109375 60.144531 79.355469 60.148438 C 79.585938 60.152344 85.078125 55.210938 93.789062 47.160156 C 96.707031 44.464844 99.195312 42.386719 99.324219 42.546875 C 99.644531 42.949219 89.964844 54.726562 85.109375 59.835938 C 82.890625 62.171875 80.984375 64.265625 80.871094 64.496094 C 80.507812 65.230469 81.652344 67.359375 84.332031 70.933594 C 87.71875 75.457031 89.5625 76.667969 93.0625 76.667969 C 95.921875 76.667969 97.863281 75.960938 103.242188 72.964844 C 105.167969 71.894531 106.890625 71.019531 107.066406 71.019531 C 107.484375 71.019531 106.570312 72.621094 102.40625 79.179688 C 96.898438 87.855469 95.8125 88.832031 89.960938 90.378906 C 86.148438 91.386719 83.414062 91.214844 81.164062 89.832031 C 78.960938 88.480469 74.226562 83.050781 70.804688 77.960938 C 69.523438 76.054688 68.265625 74.496094 68.011719 74.496094 C 67.757812 74.496094 65.414062 75.992188 62.804688 77.824219 C 49.929688 86.867188 40.308594 91.007812 32.175781 91.007812 L 28.929688 91.007812 Z M 51.625 78.316406 C 54.621094 77.414062 63.699219 73.023438 65.308594 71.699219 C 65.796875 71.296875 66.28125 70.691406 66.386719 70.355469 C 66.605469 69.636719 63.90625 63.058594 61.484375 58.414062 C 60.546875 56.621094 58.375 53.378906 56.65625 51.207031 C 54.132812 48.019531 53.144531 47.078125 51.527344 46.316406 C 49.160156 45.207031 45.941406 45.082031 44.136719 46.023438 C 41.300781 47.515625 36.390625 54.171875 34.242188 59.441406 C 33.316406 61.714844 33.132812 62.699219 33.007812 66.105469 C 32.875 69.574219 32.957031 70.359375 33.617188 72.078125 C 34.921875 75.457031 38.390625 78.597656 41.5625 79.269531 C 43.84375 79.757812 48.226562 79.339844 51.625 78.316406 Z M 51.625 78.316406 "/>
</g>
</svg>
