
<svg xmlns="http://www.w3.org/2000/svg" xmlns:xlink="http://www.w3.org/1999/xlink" width="128px" height="128px" viewBox="0 0 128 128" version="1.1">
<defs>
<filter id="alpha" filterUnits="objectBoundingBox" x="0%" y="0%" width="100%" height="100%">
  <feColorMatrix type="matrix" in="SourceGraphic" values="0 0 0 0 1 0 0 0 0 1 0 0 0 0 1 0 0 0 1 0"/>
</filter>
<mask id="mask0">
  <g filter="url(#alpha)">
<rect x="0" y="0" width="128" height="128" style="fill:rgb(0%,0%,0%);fill-opacity:0.2;stroke:none;"/>
  </g>
</mask>
<clipPath id="clip1">
  <rect x="0" y="0" width="128" height="128"/>
</clipPath>
<g id="surface5" clip-path="url(#clip1)">
<path style=" stroke:none;fill-rule:nonzero;fill:rgb(0%,0%,0%);fill-opacity:1;" d="M 52 8.5 C 15.59375 8.5 8 16.257812 8 52.5 L 8 76.5 C 8 112.742188 15.59375 120.5 52 120.5 L 76 120.5 C 112.40625 120.5 120 112.742188 120 76.5 L 120 52.5 C 120 16.257812 112.40625 8.5 76 8.5 "/>
</g>
<linearGradient id="linear0" gradientUnits="userSpaceOnUse" x1="2" y1="2" x2="30" y2="30" gradientTransform="matrix(4,0,0,4,0,0)">
<stop offset="0" style="stop-color:rgb(29.803923%,45.882353%,13.725491%);stop-opacity:1;"/>
<stop offset="1" style="stop-color:rgb(52.941179%,81.176472%,24.313726%);stop-opacity:1;"/>
</linearGradient>
<mask id="mask1">
  <g filter="url(#alpha)">
<rect x="0" y="0" width="128" height="128" style="fill:rgb(0%,0%,0%);fill-opacity:0.5;stroke:none;"/>
  </g>
</mask>
<clipPath id="clip2">
  <rect x="0" y="0" width="128" height="128"/>
</clipPath>
<g id="surface8" clip-path="url(#clip2)">
<path style=" stroke:none;fill-rule:nonzero;fill:rgb(100%,100%,100%);fill-opacity:1;" d="M 32.207031 85.476562 L 96.207031 85.476562 C 100.625 85.476562 104.207031 89.058594 104.207031 93.476562 L 104.207031 101.476562 C 104.207031 105.894531 100.625 109.476562 96.207031 109.476562 L 32.207031 109.476562 C 27.789062 109.476562 24.207031 105.894531 24.207031 101.476562 L 24.207031 93.476562 C 24.207031 89.058594 27.789062 85.476562 32.207031 85.476562 Z M 32.207031 85.476562 "/>
</g>
<mask id="mask2">
  <g filter="url(#alpha)">
<rect x="0" y="0" width="128" height="128" style="fill:rgb(0%,0%,0%);fill-opacity:0.3;stroke:none;"/>
  </g>
</mask>
<clipPath id="clip3">
  <rect x="0" y="0" width="128" height="128"/>
</clipPath>
<g id="surface11" clip-path="url(#clip3)">
<path style=" stroke:none;fill-rule:nonzero;fill:rgb(100%,100%,100%);fill-opacity:1;" d="M 72.035156 48.136719 L 84.328125 48.136719 C 87.722656 48.136719 90.476562 50.816406 90.476562 54.121094 L 90.476562 66.082031 C 90.476562 69.386719 87.722656 72.066406 84.328125 72.066406 L 72.035156 72.066406 C 68.640625 72.066406 65.890625 69.386719 65.890625 66.082031 L 65.890625 54.121094 C 65.890625 50.816406 68.640625 48.136719 72.035156 48.136719 Z M 72.035156 48.136719 "/>
</g>
<mask id="mask3">
  <g filter="url(#alpha)">
<rect x="0" y="0" width="128" height="128" style="fill:rgb(0%,0%,0%);fill-opacity:0.6;stroke:none;"/>
  </g>
</mask>
<clipPath id="clip4">
  <rect x="0" y="0" width="128" height="128"/>
</clipPath>
<g id="surface14" clip-path="url(#clip4)">
<path style=" stroke:none;fill-rule:nonzero;fill:rgb(100%,100%,100%);fill-opacity:1;" d="M 43.355469 48.136719 L 55.648438 48.136719 C 59.042969 48.136719 61.792969 50.816406 61.792969 54.121094 L 61.792969 66.082031 C 61.792969 69.386719 59.042969 72.066406 55.648438 72.066406 L 43.355469 72.066406 C 39.960938 72.066406 37.207031 69.386719 37.207031 66.082031 L 37.207031 54.121094 C 37.207031 50.816406 39.960938 48.136719 43.355469 48.136719 Z M 43.355469 48.136719 "/>
</g>
<mask id="mask4">
  <g filter="url(#alpha)">
<rect x="0" y="0" width="128" height="128" style="fill:rgb(0%,0%,0%);fill-opacity:0.6;stroke:none;"/>
  </g>
</mask>
<clipPath id="clip5">
  <rect x="0" y="0" width="128" height="128"/>
</clipPath>
<g id="surface17" clip-path="url(#clip5)">
<path style=" stroke:none;fill-rule:nonzero;fill:rgb(100%,100%,100%);fill-opacity:1;" d="M 72.035156 76.054688 L 84.328125 76.054688 C 87.722656 76.054688 90.476562 78.730469 90.476562 82.035156 L 90.476562 94 C 90.476562 97.300781 87.722656 99.980469 84.328125 99.980469 L 72.035156 99.980469 C 68.640625 99.980469 65.890625 97.300781 65.890625 94 L 65.890625 82.035156 C 65.890625 78.730469 68.640625 76.054688 72.035156 76.054688 Z M 72.035156 76.054688 "/>
</g>
</defs>
<g id="surface1">
<use xlink:href="#surface5" mask="url(#mask0)"/>
<path style=" stroke:none;fill-rule:nonzero;fill:url(#linear0);" d="M 52 8 C 15.59375 8 8 15.757812 8 52 L 8 76 C 8 112.242188 15.59375 120 52 120 L 76 120 C 112.40625 120 120 112.242188 120 76 L 120 52 C 120 15.757812 112.40625 8 76 8 Z M 52 8 "/>
<path style=" stroke:none;fill-rule:nonzero;fill:rgb(92.54902%,92.54902%,92.54902%);fill-opacity:1;" d="M 64 40 C 52.976562 40 44 31.023438 44 20 C 44 18.894531 44.894531 18 46 18 C 47.105469 18 48 18.894531 48 20 C 48 28.859375 55.140625 36 64 36 C 72.859375 36 80 28.859375 80 20 C 80 18.894531 80.894531 18 82 18 C 83.105469 18 84 18.894531 84 20 C 84 31.023438 75.023438 40 64 40 Z M 64 40 "/>
<use xlink:href="#surface8" mask="url(#mask1)"/>
<use xlink:href="#surface11" mask="url(#mask2)"/>
<use xlink:href="#surface14" mask="url(#mask3)"/>
<use xlink:href="#surface17" mask="url(#mask4)"/>
<path style=" stroke:none;fill-rule:nonzero;fill:rgb(100%,100%,100%);fill-opacity:1;" d="M 43.355469 76.054688 L 55.648438 76.054688 C 59.042969 76.054688 61.792969 78.730469 61.792969 82.035156 L 61.792969 94 C 61.792969 97.300781 59.042969 99.980469 55.648438 99.980469 L 43.355469 99.980469 C 39.960938 99.980469 37.207031 97.300781 37.207031 94 L 37.207031 82.035156 C 37.207031 78.730469 39.960938 76.054688 43.355469 76.054688 Z M 43.355469 76.054688 "/>
</g>
</svg>
