
<svg xmlns="http://www.w3.org/2000/svg" xmlns:xlink="http://www.w3.org/1999/xlink" width="16px" height="16px" viewBox="0 0 16 16" version="1.1">
<defs>
<linearGradient id="linear0" gradientUnits="userSpaceOnUse" x1="216.405899" y1="78.611198" x2="526.997375" y2="670.593323" gradientTransform="matrix(0.0217096,0,0,0.0217096,0,0)">
<stop offset="0" style="stop-color:rgb(25.490198%,74.509805%,83.529413%);stop-opacity:1;"/>
<stop offset="0.9954" style="stop-color:rgb(51.372552%,32.549021%,84.313726%);stop-opacity:1;"/>
</linearGradient>
</defs>
<g id="surface1">
<path style=" stroke:none;fill-rule:nonzero;fill:url(#linear0);" d="M 15.304688 6.324219 L 9.675781 0.695312 C 8.753906 -0.230469 7.246094 -0.230469 6.324219 0.695312 L 0.695312 6.324219 C -0.230469 7.246094 -0.230469 8.753906 0.695312 9.675781 L 6.324219 15.304688 C 7.246094 16.230469 8.753906 16.230469 9.675781 15.304688 L 15.304688 9.675781 C 16.234375 8.753906 16.234375 7.246094 15.304688 6.324219 Z M 15.304688 6.324219 "/>
<path style=" stroke:none;fill-rule:nonzero;fill:rgb(93.725491%,93.725491%,93.725491%);fill-opacity:1;" d="M 2.90625 7.285156 C 2.546875 7.738281 2.578125 8.402344 2.996094 8.816406 C 3.449219 9.265625 4.179688 9.265625 4.628906 8.816406 L 6.421875 7.027344 C 5.335938 6.339844 3.902344 6.425781 2.90625 7.285156 Z M 2.90625 7.285156 "/>
<path style=" stroke:none;fill-rule:nonzero;fill:rgb(93.725491%,93.725491%,93.725491%);fill-opacity:1;" d="M 13.003906 7.183594 C 12.550781 6.734375 11.820312 6.734375 11.371094 7.183594 L 9.546875 9.007812 C 10.640625 9.703125 12.089844 9.609375 13.089844 8.726562 C 13.453125 8.269531 13.421875 7.605469 13.003906 7.183594 Z M 13.003906 7.183594 "/>
<path style=" stroke:none;fill-rule:nonzero;fill:rgb(100%,100%,100%);fill-opacity:1;" d="M 9.328125 9.222656 C 9.144531 9.109375 8.972656 8.972656 8.816406 8.816406 C 7.660156 7.660156 7.660156 5.785156 8.816406 4.628906 C 9.265625 4.175781 9.265625 3.445312 8.816406 2.996094 C 8.363281 2.546875 7.632812 2.546875 7.183594 2.996094 L 2.996094 7.183594 C 3.996094 6.183594 5.527344 6.050781 6.671875 6.777344 C 6.855469 6.890625 7.027344 7.027344 7.183594 7.183594 C 8.339844 8.339844 8.339844 10.214844 7.183594 11.371094 C 6.734375 11.824219 6.734375 12.554688 7.183594 13.003906 C 7.636719 13.453125 8.367188 13.453125 8.816406 13.003906 L 13.003906 8.816406 C 12.003906 9.816406 10.472656 9.949219 9.328125 9.222656 Z M 9.328125 9.222656 "/>
</g>
</svg>
