
<svg xmlns="http://www.w3.org/2000/svg" xmlns:xlink="http://www.w3.org/1999/xlink" width="16px" height="16px" viewBox="0 0 16 16" version="1.1">
<defs>
<filter id="alpha" filterUnits="objectBoundingBox" x="0%" y="0%" width="100%" height="100%">
  <feColorMatrix type="matrix" in="SourceGraphic" values="0 0 0 0 1 0 0 0 0 1 0 0 0 0 1 0 0 0 1 0"/>
</filter>
<mask id="mask0">
  <g filter="url(#alpha)">
<rect x="0" y="0" width="16" height="16" style="fill:rgb(0%,0%,0%);fill-opacity:0.2;stroke:none;"/>
  </g>
</mask>
<clipPath id="clip1">
  <rect x="0" y="0" width="16" height="16"/>
</clipPath>
<g id="surface5" clip-path="url(#clip1)">
<path style=" stroke:none;fill-rule:nonzero;fill:rgb(0%,0%,0%);fill-opacity:1;" d="M 6.5 1.0625 C 1.949219 1.0625 1 2.03125 1 6.5625 L 1 9.5625 C 1 14.09375 1.949219 15.0625 6.5 15.0625 L 9.5 15.0625 C 14.050781 15.0625 15 14.09375 15 9.5625 L 15 6.5625 C 15 2.03125 14.050781 1.0625 9.5 1.0625 "/>
</g>
<linearGradient id="linear0" gradientUnits="userSpaceOnUse" x1="30" y1="30" x2="2" y2="2" gradientTransform="matrix(0.5,0,0,0.5,0,0)">
<stop offset="0" style="stop-color:rgb(25.490198%,73.333335%,100%);stop-opacity:1;"/>
<stop offset="1" style="stop-color:rgb(0%,56.862748%,97.647059%);stop-opacity:1;"/>
</linearGradient>
</defs>
<g id="surface1">
<use xlink:href="#surface5" mask="url(#mask0)"/>
<path style=" stroke:none;fill-rule:nonzero;fill:url(#linear0);" d="M 6.5 1 C 1.949219 1 1 1.96875 1 6.5 L 1 9.5 C 1 14.03125 1.949219 15 6.5 15 L 9.5 15 C 14.050781 15 15 14.03125 15 9.5 L 15 6.5 C 15 1.96875 14.050781 1 9.5 1 Z M 6.5 1 "/>
<path style=" stroke:none;fill-rule:nonzero;fill:rgb(100%,100%,100%);fill-opacity:1;" d="M 3.40625 11.109375 L 3.195312 10.839844 L 3.226562 10.316406 C 3.273438 9.511719 3.386719 9.058594 3.789062 8.035156 C 4.242188 6.886719 4.578125 6.246094 5.050781 5.625 C 5.691406 4.777344 6.242188 4.433594 7.035156 4.382812 C 8.035156 4.320312 8.558594 4.753906 9.261719 6.222656 C 9.714844 7.175781 9.886719 7.519531 9.917969 7.519531 C 9.949219 7.519531 10.636719 6.902344 11.722656 5.894531 C 12.089844 5.558594 12.398438 5.296875 12.414062 5.316406 C 12.457031 5.367188 11.246094 6.839844 10.640625 7.480469 C 10.363281 7.769531 10.121094 8.035156 10.109375 8.0625 C 10.0625 8.152344 10.207031 8.417969 10.542969 8.867188 C 10.964844 9.433594 11.195312 9.582031 11.632812 9.582031 C 11.988281 9.582031 12.234375 9.496094 12.90625 9.121094 C 13.144531 8.988281 13.359375 8.878906 13.382812 8.878906 C 13.4375 8.878906 13.320312 9.078125 12.800781 9.898438 C 12.113281 10.980469 11.976562 11.105469 11.246094 11.296875 C 10.769531 11.421875 10.425781 11.402344 10.144531 11.230469 C 9.871094 11.058594 9.277344 10.382812 8.851562 9.746094 C 8.691406 9.507812 8.535156 9.3125 8.5 9.3125 C 8.46875 9.3125 8.175781 9.5 7.851562 9.726562 C 6.242188 10.859375 5.039062 11.375 4.023438 11.375 L 3.617188 11.375 Z M 6.453125 9.789062 C 6.828125 9.675781 7.960938 9.128906 8.164062 8.960938 C 8.226562 8.910156 8.285156 8.835938 8.296875 8.792969 C 8.324219 8.703125 7.988281 7.882812 7.683594 7.300781 C 7.570312 7.078125 7.296875 6.671875 7.082031 6.402344 C 6.765625 6.003906 6.644531 5.882812 6.441406 5.789062 C 6.144531 5.652344 5.742188 5.636719 5.515625 5.753906 C 5.164062 5.9375 4.546875 6.773438 4.28125 7.429688 C 4.164062 7.714844 4.140625 7.835938 4.125 8.261719 C 4.109375 8.695312 4.121094 8.796875 4.203125 9.011719 C 4.363281 9.433594 4.796875 9.824219 5.195312 9.910156 C 5.480469 9.96875 6.027344 9.917969 6.453125 9.789062 Z M 6.453125 9.789062 "/>
</g>
</svg>
