
<svg xmlns="http://www.w3.org/2000/svg" xmlns:xlink="http://www.w3.org/1999/xlink" width="96px" height="96px" viewBox="0 0 96 96" version="1.1">
<defs>
<linearGradient id="linear0" gradientUnits="userSpaceOnUse" x1="216.405899" y1="78.611198" x2="526.997375" y2="670.593323" gradientTransform="matrix(0.130258,0,0,0.130258,0,0)">
<stop offset="0" style="stop-color:rgb(25.490198%,74.509805%,83.529413%);stop-opacity:1;"/>
<stop offset="0.9954" style="stop-color:rgb(51.372552%,32.549021%,84.313726%);stop-opacity:1;"/>
</linearGradient>
</defs>
<g id="surface1">
<path style=" stroke:none;fill-rule:nonzero;fill:url(#linear0);" d="M 91.824219 37.941406 L 58.058594 4.175781 C 52.515625 -1.378906 43.484375 -1.378906 37.941406 4.175781 L 4.175781 37.941406 C -1.378906 43.484375 -1.378906 52.515625 4.175781 58.058594 L 37.941406 91.824219 C 43.484375 97.378906 52.515625 97.378906 58.058594 91.824219 L 91.824219 58.058594 C 97.398438 52.515625 97.398438 43.484375 91.824219 37.941406 Z M 91.824219 37.941406 "/>
<path style=" stroke:none;fill-rule:nonzero;fill:rgb(93.725491%,93.725491%,93.725491%);fill-opacity:1;" d="M 17.4375 43.703125 C 15.289062 46.433594 15.476562 50.402344 17.984375 52.890625 C 20.691406 55.601562 25.074219 55.601562 27.765625 52.890625 L 38.523438 42.152344 C 32.011719 38.046875 23.421875 38.558594 17.4375 43.703125 Z M 17.4375 43.703125 "/>
<path style=" stroke:none;fill-rule:nonzero;fill:rgb(93.725491%,93.725491%,93.725491%);fill-opacity:1;" d="M 78.015625 43.109375 C 75.308594 40.398438 70.925781 40.398438 68.234375 43.109375 L 57.289062 54.050781 C 63.851562 58.210938 72.546875 57.648438 78.527344 52.363281 C 80.710938 49.621094 80.539062 45.628906 78.015625 43.109375 Z M 78.015625 43.109375 "/>
<path style=" stroke:none;fill-rule:nonzero;fill:rgb(100%,100%,100%);fill-opacity:1;" d="M 55.960938 55.347656 C 54.871094 54.648438 53.847656 53.847656 52.890625 52.890625 C 45.953125 45.953125 45.953125 34.703125 52.890625 27.765625 C 55.601562 25.058594 55.601562 20.675781 52.890625 17.984375 C 50.183594 15.273438 45.800781 15.273438 43.109375 17.984375 L 17.984375 43.109375 C 23.964844 37.109375 33.171875 36.308594 40.023438 40.652344 C 41.128906 41.351562 42.152344 42.152344 43.109375 43.109375 C 50.046875 50.046875 50.046875 61.296875 43.109375 68.234375 C 40.398438 70.941406 40.398438 75.324219 43.109375 78.015625 C 45.816406 80.726562 50.199219 80.726562 52.890625 78.015625 L 78.015625 52.910156 C 72.035156 58.890625 62.828125 59.691406 55.960938 55.347656 Z M 55.960938 55.347656 "/>
</g>
</svg>
