
<svg xmlns="http://www.w3.org/2000/svg" xmlns:xlink="http://www.w3.org/1999/xlink" width="22px" height="22px" viewBox="0 0 22 22" version="1.1">
<defs>
<linearGradient id="linear0" gradientUnits="userSpaceOnUse" x1="216.405899" y1="78.611198" x2="526.997375" y2="670.593323" gradientTransform="matrix(0.0298507,0,0,0.0298507,0,0)">
<stop offset="0" style="stop-color:rgb(25.490198%,74.509805%,83.529413%);stop-opacity:1;"/>
<stop offset="0.9954" style="stop-color:rgb(51.372552%,32.549021%,84.313726%);stop-opacity:1;"/>
</linearGradient>
</defs>
<g id="surface1">
<path style=" stroke:none;fill-rule:nonzero;fill:url(#linear0);" d="M 21.042969 8.695312 L 13.304688 0.957031 C 12.035156 -0.316406 9.964844 -0.316406 8.695312 0.957031 L 0.957031 8.695312 C -0.316406 9.964844 -0.316406 12.035156 0.957031 13.304688 L 8.695312 21.042969 C 9.964844 22.316406 12.035156 22.316406 13.304688 21.042969 L 21.042969 13.304688 C 22.320312 12.035156 22.320312 9.964844 21.042969 8.695312 Z M 21.042969 8.695312 "/>
<path style=" stroke:none;fill-rule:nonzero;fill:rgb(93.725491%,93.725491%,93.725491%);fill-opacity:1;" d="M 3.996094 10.015625 C 3.503906 10.640625 3.546875 11.550781 4.121094 12.121094 C 4.742188 12.742188 5.746094 12.742188 6.363281 12.121094 L 8.828125 9.660156 C 7.335938 8.71875 5.367188 8.835938 3.996094 10.015625 Z M 3.996094 10.015625 "/>
<path style=" stroke:none;fill-rule:nonzero;fill:rgb(93.725491%,93.725491%,93.725491%);fill-opacity:1;" d="M 17.878906 9.878906 C 17.257812 9.257812 16.253906 9.257812 15.636719 9.878906 L 13.128906 12.386719 C 14.632812 13.339844 16.625 13.210938 17.996094 12 C 18.496094 11.371094 18.457031 10.457031 17.878906 9.878906 Z M 17.878906 9.878906 "/>
<path style=" stroke:none;fill-rule:nonzero;fill:rgb(100%,100%,100%);fill-opacity:1;" d="M 12.824219 12.683594 C 12.574219 12.523438 12.339844 12.339844 12.121094 12.121094 C 10.53125 10.53125 10.53125 7.953125 12.121094 6.363281 C 12.742188 5.742188 12.742188 4.738281 12.121094 4.121094 C 11.5 3.5 10.496094 3.5 9.878906 4.121094 L 4.121094 9.878906 C 5.492188 8.503906 7.601562 8.320312 9.171875 9.316406 C 9.425781 9.476562 9.660156 9.660156 9.878906 9.878906 C 11.46875 11.46875 11.46875 14.046875 9.878906 15.636719 C 9.257812 16.257812 9.257812 17.261719 9.878906 17.878906 C 10.5 18.5 11.503906 18.5 12.121094 17.878906 L 17.878906 12.125 C 16.507812 13.496094 14.398438 13.679688 12.824219 12.683594 Z M 12.824219 12.683594 "/>
</g>
</svg>
