
<svg xmlns="http://www.w3.org/2000/svg" xmlns:xlink="http://www.w3.org/1999/xlink" width="32px" height="32px" viewBox="0 0 32 32" version="1.1">
<defs>
<linearGradient id="linear0" gradientUnits="userSpaceOnUse" x1="216.405899" y1="78.611198" x2="526.997375" y2="670.593323" gradientTransform="matrix(0.0434192,0,0,0.0434192,0,0)">
<stop offset="0" style="stop-color:rgb(25.490198%,74.509805%,83.529413%);stop-opacity:1;"/>
<stop offset="0.9954" style="stop-color:rgb(51.372552%,32.549021%,84.313726%);stop-opacity:1;"/>
</linearGradient>
</defs>
<g id="surface1">
<path style=" stroke:none;fill-rule:nonzero;fill:url(#linear0);" d="M 30.609375 12.648438 L 19.351562 1.390625 C 17.503906 -0.460938 14.496094 -0.460938 12.648438 1.390625 L 1.390625 12.648438 C -0.460938 14.496094 -0.460938 17.503906 1.390625 19.351562 L 12.648438 30.609375 C 14.496094 32.460938 17.503906 32.460938 19.351562 30.609375 L 30.609375 19.351562 C 32.464844 17.503906 32.464844 14.496094 30.609375 12.648438 Z M 30.609375 12.648438 "/>
<path style=" stroke:none;fill-rule:nonzero;fill:rgb(93.725491%,93.725491%,93.725491%);fill-opacity:1;" d="M 5.8125 14.566406 C 5.097656 15.476562 5.160156 16.800781 5.996094 17.628906 C 6.898438 18.535156 8.359375 18.535156 9.253906 17.628906 L 12.839844 14.050781 C 10.671875 12.683594 7.808594 12.851562 5.8125 14.566406 Z M 5.8125 14.566406 "/>
<path style=" stroke:none;fill-rule:nonzero;fill:rgb(93.725491%,93.725491%,93.725491%);fill-opacity:1;" d="M 26.003906 14.371094 C 25.101562 13.464844 23.640625 13.464844 22.746094 14.371094 L 19.097656 18.015625 C 21.285156 19.402344 24.183594 19.214844 26.175781 17.453125 C 26.902344 16.539062 26.847656 15.210938 26.003906 14.371094 Z M 26.003906 14.371094 "/>
<path style=" stroke:none;fill-rule:nonzero;fill:rgb(100%,100%,100%);fill-opacity:1;" d="M 18.652344 18.449219 C 18.289062 18.214844 17.949219 17.949219 17.628906 17.628906 C 15.316406 15.316406 15.316406 11.566406 17.628906 9.253906 C 18.535156 8.351562 18.535156 6.890625 17.628906 5.996094 C 16.726562 5.089844 15.265625 5.089844 14.371094 5.996094 L 5.996094 14.371094 C 7.988281 12.371094 11.058594 12.101562 13.339844 13.550781 C 13.710938 13.785156 14.050781 14.050781 14.371094 14.371094 C 16.683594 16.683594 16.683594 20.433594 14.371094 22.746094 C 13.464844 23.648438 13.464844 25.109375 14.371094 26.003906 C 15.273438 26.910156 16.734375 26.910156 17.628906 26.003906 L 26.003906 17.636719 C 24.011719 19.628906 20.941406 19.898438 18.652344 18.449219 Z M 18.652344 18.449219 "/>
</g>
</svg>
