
<svg xmlns="http://www.w3.org/2000/svg" xmlns:xlink="http://www.w3.org/1999/xlink" width="64px" height="64px" viewBox="0 0 64 64" version="1.1">
<defs>
<filter id="alpha" filterUnits="objectBoundingBox" x="0%" y="0%" width="100%" height="100%">
  <feColorMatrix type="matrix" in="SourceGraphic" values="0 0 0 0 1 0 0 0 0 1 0 0 0 0 1 0 0 0 1 0"/>
</filter>
<mask id="mask0">
  <g filter="url(#alpha)">
<rect x="0" y="0" width="64" height="64" style="fill:rgb(0%,0%,0%);fill-opacity:0.2;stroke:none;"/>
  </g>
</mask>
<clipPath id="clip1">
  <rect x="0" y="0" width="64" height="64"/>
</clipPath>
<g id="surface5" clip-path="url(#clip1)">
<path style=" stroke:none;fill-rule:nonzero;fill:rgb(0%,0%,0%);fill-opacity:1;" d="M 26 4.25 C 7.796875 4.25 4 8.128906 4 26.25 L 4 38.25 C 4 56.371094 7.796875 60.25 26 60.25 L 38 60.25 C 56.203125 60.25 60 56.371094 60 38.25 L 60 26.25 C 60 8.128906 56.203125 4.25 38 4.25 "/>
</g>
<linearGradient id="linear0" gradientUnits="userSpaceOnUse" x1="30" y1="30" x2="2" y2="2" gradientTransform="matrix(2,0,0,2,0,0)">
<stop offset="0" style="stop-color:rgb(25.490198%,73.333335%,100%);stop-opacity:1;"/>
<stop offset="1" style="stop-color:rgb(0%,56.862748%,97.647059%);stop-opacity:1;"/>
</linearGradient>
</defs>
<g id="surface1">
<use xlink:href="#surface5" mask="url(#mask0)"/>
<path style=" stroke:none;fill-rule:nonzero;fill:url(#linear0);" d="M 26 4 C 7.796875 4 4 7.878906 4 26 L 4 38 C 4 56.121094 7.796875 60 26 60 L 38 60 C 56.203125 60 60 56.121094 60 38 L 60 26 C 60 7.878906 56.203125 4 38 4 Z M 26 4 "/>
<path style=" stroke:none;fill-rule:nonzero;fill:rgb(100%,100%,100%);fill-opacity:1;" d="M 13.625 44.433594 L 12.785156 43.363281 L 12.90625 41.257812 C 13.097656 38.050781 13.542969 36.238281 15.160156 32.140625 C 16.972656 27.550781 18.308594 24.988281 20.195312 22.5 C 22.765625 19.109375 24.96875 17.730469 28.148438 17.527344 C 32.144531 17.273438 34.242188 19.011719 37.042969 24.890625 C 38.859375 28.707031 39.554688 30.074219 39.679688 30.074219 C 39.792969 30.078125 42.539062 27.605469 46.894531 23.578125 C 48.351562 22.230469 49.597656 21.195312 49.660156 21.273438 C 49.824219 21.476562 44.984375 27.363281 42.554688 29.917969 C 41.445312 31.085938 40.492188 32.132812 40.4375 32.246094 C 40.253906 32.617188 40.824219 33.679688 42.164062 35.464844 C 43.859375 37.726562 44.78125 38.332031 46.53125 38.332031 C 47.960938 38.332031 48.929688 37.980469 51.621094 36.484375 C 52.582031 35.949219 53.445312 35.507812 53.535156 35.507812 C 53.742188 35.507812 53.285156 36.3125 51.203125 39.589844 C 48.449219 43.925781 47.90625 44.417969 44.980469 45.1875 C 43.074219 45.691406 41.707031 45.609375 40.582031 44.917969 C 39.480469 44.238281 37.113281 41.527344 35.402344 38.980469 C 34.761719 38.027344 34.132812 37.246094 34.007812 37.246094 C 33.878906 37.246094 32.707031 37.996094 31.402344 38.914062 C 24.964844 43.433594 20.15625 45.503906 16.089844 45.503906 L 14.464844 45.503906 Z M 25.8125 39.15625 C 27.3125 38.707031 31.851562 36.511719 32.65625 35.847656 C 32.898438 35.648438 33.140625 35.347656 33.191406 35.175781 C 33.300781 34.816406 31.953125 31.53125 30.742188 29.207031 C 30.273438 28.3125 29.1875 26.6875 28.328125 25.601562 C 27.066406 24.007812 26.570312 23.539062 25.761719 23.160156 C 24.582031 22.605469 22.96875 22.539062 22.070312 23.011719 C 20.652344 23.757812 18.195312 27.085938 17.121094 29.71875 C 16.660156 30.855469 16.566406 31.351562 16.503906 33.050781 C 16.4375 34.785156 16.476562 35.179688 16.808594 36.039062 C 17.460938 37.726562 19.195312 39.296875 20.78125 39.636719 C 21.921875 39.878906 24.113281 39.671875 25.8125 39.15625 Z M 25.8125 39.15625 "/>
</g>
</svg>
