
<svg xmlns="http://www.w3.org/2000/svg" xmlns:xlink="http://www.w3.org/1999/xlink" width="32px" height="32px" viewBox="0 0 32 32" version="1.1">
<defs>
<filter id="alpha" filterUnits="objectBoundingBox" x="0%" y="0%" width="100%" height="100%">
  <feColorMatrix type="matrix" in="SourceGraphic" values="0 0 0 0 1 0 0 0 0 1 0 0 0 0 1 0 0 0 1 0"/>
</filter>
<mask id="mask0">
  <g filter="url(#alpha)">
<rect x="0" y="0" width="32" height="32" style="fill:rgb(0%,0%,0%);fill-opacity:0.2;stroke:none;"/>
  </g>
</mask>
<clipPath id="clip1">
  <rect x="0" y="0" width="32" height="32"/>
</clipPath>
<g id="surface5" clip-path="url(#clip1)">
<path style=" stroke:none;fill-rule:nonzero;fill:rgb(0%,0%,0%);fill-opacity:1;" d="M 13 2.125 C 3.898438 2.125 2 4.066406 2 13.125 L 2 19.125 C 2 28.183594 3.898438 30.125 13 30.125 L 19 30.125 C 28.101562 30.125 30 28.183594 30 19.125 L 30 13.125 C 30 4.066406 28.101562 2.125 19 2.125 "/>
</g>
<linearGradient id="linear0" gradientUnits="userSpaceOnUse" x1="30" y1="30" x2="2" y2="2" >
<stop offset="0" style="stop-color:rgb(25.490198%,73.333335%,100%);stop-opacity:1;"/>
<stop offset="1" style="stop-color:rgb(0%,56.862748%,97.647059%);stop-opacity:1;"/>
</linearGradient>
</defs>
<g id="surface1">
<use xlink:href="#surface5" mask="url(#mask0)"/>
<path style=" stroke:none;fill-rule:nonzero;fill:url(#linear0);" d="M 13 2 C 3.898438 2 2 3.941406 2 13 L 2 19 C 2 28.058594 3.898438 30 13 30 L 19 30 C 28.101562 30 30 28.058594 30 19 L 30 13 C 30 3.941406 28.101562 2 19 2 Z M 13 2 "/>
<path style=" stroke:none;fill-rule:nonzero;fill:rgb(100%,100%,100%);fill-opacity:1;" d="M 6.8125 22.214844 L 6.390625 21.679688 L 6.453125 20.628906 C 6.546875 19.023438 6.773438 18.117188 7.578125 16.070312 C 8.484375 13.773438 9.15625 12.492188 10.097656 11.25 C 11.382812 9.554688 12.484375 8.867188 14.074219 8.765625 C 16.070312 8.636719 17.121094 9.507812 18.519531 12.445312 C 19.429688 14.355469 19.777344 15.035156 19.839844 15.039062 C 19.898438 15.039062 21.269531 13.800781 23.445312 11.789062 C 24.175781 11.117188 24.800781 10.597656 24.832031 10.636719 C 24.910156 10.738281 22.492188 13.679688 21.277344 14.957031 C 20.722656 15.542969 20.246094 16.066406 20.21875 16.125 C 20.128906 16.308594 20.414062 16.839844 21.082031 17.734375 C 21.929688 18.863281 22.390625 19.167969 23.265625 19.167969 C 23.980469 19.167969 24.464844 18.992188 25.8125 18.242188 C 26.292969 17.972656 26.722656 17.753906 26.765625 17.753906 C 26.871094 17.753906 26.640625 18.15625 25.601562 19.792969 C 24.226562 21.964844 23.953125 22.207031 22.488281 22.59375 C 21.535156 22.847656 20.851562 22.804688 20.289062 22.457031 C 19.742188 22.121094 18.554688 20.761719 17.703125 19.492188 C 17.382812 19.011719 17.066406 18.625 17.003906 18.625 C 16.9375 18.625 16.351562 19 15.703125 19.457031 C 12.480469 21.71875 10.078125 22.753906 8.042969 22.753906 L 7.234375 22.753906 Z M 12.90625 19.578125 C 13.65625 19.351562 15.925781 18.253906 16.328125 17.925781 C 16.449219 17.824219 16.570312 17.671875 16.597656 17.589844 C 16.652344 17.410156 15.976562 15.765625 15.371094 14.605469 C 15.136719 14.15625 14.59375 13.34375 14.164062 12.800781 C 13.53125 12.003906 13.285156 11.769531 12.882812 11.578125 C 12.289062 11.300781 11.484375 11.269531 11.035156 11.507812 C 10.324219 11.878906 9.097656 13.542969 8.5625 14.859375 C 8.328125 15.429688 8.285156 15.675781 8.25 16.527344 C 8.21875 17.394531 8.238281 17.589844 8.40625 18.019531 C 8.730469 18.863281 9.597656 19.648438 10.390625 19.816406 C 10.960938 19.9375 12.054688 19.835938 12.90625 19.578125 Z M 12.90625 19.578125 "/>
</g>
</svg>
